Parker 2013 BRRip.x264.AC3-PsiX

 
http://www.freeimgshost.com/fullsize/9by3ne7t7w4po3yeff.jpg








A thief with a unique code of professional ethics is double-crossed by his
crew and left for dead. Assuming a new disguise and forming an unlikely
alliance with a woman on the inside, he looks to hijack the score of the
crew's latest heist.
 
http://www.freeimgshost.com/fullsize/fedhwpkwo8bmwo81z317.jpg


Director:

Taylor Hackford

Writers:

John J. McLaughlin (screenplay), Donald E. Westlake (novel)

Stars:

Jason Statham, Jennifer Lopez, Michael Chiklis

 
http://www.freeimgshost.com/fullsize/x4xfmezr6oyqe5qqbyi9.png
 
http://www.freeimgshost.com/fullsize/t1ddexsk6zk17zk1uvym.png
 
http://www.freeimgshost.com/fullsize/5b7j0os6l20mvbie5ebf.png
 
http://www.freeimgshost.com/fullsize/tg32ojzeo1jnyjpkjk.png
 
http://www.freeimgshost.com/fullsize/1voyuck1o786pdosnc0h.png




Parker.2013.BRRip.x264.AC3-PsiX.mkv
Format : Matroska
Format version : Version 2
File size : 1.45 GiB
Duration : 1h 58mn
Overall bit rate : 1 749 Kbps
Encoded date : UTC 2013-05-03 13:23:28
Writing application : mkvmerge v6.1.0 ('Old Devil') built on Mar 2 2013 14:32:37
Writing library : libebml v1.3.0 + libmatroska v1.4.0

Video
ID : 1
Format : AVC
Format/Info : Advanced Video Codec
Format profile : High@L4.1
Format settings, CABAC : Yes
Format settings, ReFrames : 8 frames
Codec ID : V_MPEG4/ISO/AVC
Duration : 1h 58mn
Bit rate : 1 364 Kbps
Width : 720 pixels
Height : 304 pixels
Display aspect ratio : 2.35:1
Frame rate mode : Constant
Frame rate : 23.976 fps
Color space : YUV
Chroma subsampling : 4:2:0
Bit depth : 8 bits
Scan type : Progressive
Bits/(Pixel*Frame) : 0.260
Stream size : 1.10 GiB (76%)
Writing library : x264 core 130 r2273 b3065e6


Audio
ID : 2
Format : AC-3
Format/Info : Audio Coding 3
Mode extension : CM (complete main)
Format settings, Endianness : Big
Codec ID : A_AC3
Duration : 1h 58mn
Bit rate mode : Constant
Bit rate : 384 Kbps
Channel(s) : 6 channels
Channel positions : Front: L C R, Side: L R, LFE
Sampling rate : 48.0 KHz
Bit depth : 16 bits
Compression mode : Lossy
Stream size : 326 MiB (22%)
Language : English
Default : Yes
Forced : No




Encoded............: PsiX
Source.............: 720p-iNFAMOUS
Subs..........srt.....Brazilian, Dutch, English, Italian, Romanian, Spanish, Greek